<?xml version="1.0" encoding="UTF-8" standalone="no"?>
<!-- Created with Inkscape (http://www.inkscape.org/) -->
<svg
   xmlns:dc="http://purl.org/dc/elements/1.1/"
   xmlns:cc="http://web.resource.org/cc/"
   xmlns:rdf="http://www.w3.org/1999/02/22-rdf-syntax-ns#"
   xmlns:svg="http://www.w3.org/2000/svg"
   xmlns="http://www.w3.org/2000/svg"
   xmlns:xlink="http://www.w3.org/1999/xlink"
   xmlns:sodipodi="http://sodipodi.sourceforge.net/DTD/sodipodi-0.dtd"
   xmlns:inkscape="http://www.inkscape.org/namespaces/inkscape"
   width="60.000000px"
   height="60.000000px"
   id="svg2071"
   sodipodi:version="0.32"
   inkscape:version="0.44"
   sodipodi:docbase="/home/rsh/workspace/psygrid-data-collection/src/org/psygrid/collection/entry/icon"
   sodipodi:docname="gtk-help.svg"
   inkscape:export-filename="/home/rsh/workspace/psygrid-data-collection/src/org/psygrid/collection/entry/icon/help.png"
   inkscape:export-xdpi="29.090906"
   inkscape:export-ydpi="29.090906">
  <defs
     id="defs3">
    <linearGradient
       y2="32065"
       x2="33477"
       y1="4162"
       x1="5722"
       gradientUnits="userSpaceOnUse"
       id="linearGradient2186">
      <stop
         id="stop2188"
         style="stop-opacity:1.0000000;stop-color:#b5b6ba"
         offset="0" />
      <stop
         id="stop2190"
         style="stop-color:#fffff3;stop-opacity:1.0000;"
         offset="1" />
    </linearGradient>
    <linearGradient
       spreadMethod="pad"
       gradientUnits="objectBoundingBox"
       id="linearGradient604"
       y2="0.00000000"
       x2="1.00000000"
       y1="0.00000000"
       x1="0.00000000">
      <stop
         id="stop608"
         offset="0.0000000"
         style="stop-color:#8790ff;stop-opacity:1.0000000;" />
      <stop
         id="stop606"
         offset="0.60000002"
         style="stop-color:#061de7;stop-opacity:1.0000000;" />
      <stop
         id="stop605"
         offset="1.0000000"
         style="stop-color:#031192;stop-opacity:1.0000000;" />
    </linearGradient>
    <linearGradient
       inkscape:collect="always"
       xlink:href="#linearGradient2186"
       id="linearGradient2968"
       gradientUnits="userSpaceOnUse"
       gradientTransform="matrix(3.290370e-6,0.000000,0.000000,5.311003e-6,1.774715,2.051155)"
       x1="15182252."
       y1="10593867."
       x2="4930463.0"
       y2="1479228.5" />
    <radialGradient
       r="10694.468"
       fy="-4940.6924"
       fx="4034.3894"
       cy="-4940.6924"
       cx="4034.3894"
       gradientTransform="matrix(5.662900e-3,1.135244e-2,-6.862940e-3,3.429043e-3,-42.86898,-21.07563)"
       gradientUnits="userSpaceOnUse"
       id="radialGradient2059"
       xlink:href="#linearGradient604"
       inkscape:collect="always" />
    <radialGradient
       r="48197.5195"
       fy="-12962.734"
       fx="-78237.500"
       cy="-12962.734"
       cx="-78237.500"
       spreadMethod="pad"
       gradientTransform="matrix(1.455573,-0.655060,0.875144,1.944503,149727.4,11145.64)"
       gradientUnits="userSpaceOnUse"
       id="radialGradient2068"
       xlink:href="#linearGradient604"
       inkscape:collect="always" />
    <linearGradient
       y2="-4829.0477"
       x2="2498.9380"
       y1="24652.912"
       x1="24961.625"
       gradientUnits="userSpaceOnUse"
       id="linearGradient2070"
       xlink:href="#linearGradient604"
       inkscape:collect="always" />
  </defs>
  <sodipodi:namedview
     id="base"
     pagecolor="#ffffff"
     bordercolor="#666666"
     borderopacity="1.0"
     inkscape:pageopacity="0.0"
     inkscape:pageshadow="2"
     inkscape:zoom="2.4125"
     inkscape:cx="28.035566"
     inkscape:cy="33.113488"
     inkscape:current-layer="layer1"
     showgrid="true"
     inkscape:grid-bbox="true"
     inkscape:document-units="px"
     inkscape:window-width="890"
     inkscape:window-height="588"
     inkscape:window-x="339"
     inkscape:window-y="395" />
  <metadata
     id="metadata4">
    <rdf:RDF>
      <cc:Work
         rdf:about="">
        <dc:format>image/svg+xml</dc:format>
        <dc:type
           rdf:resource="http://purl.org/dc/dcmitype/StillImage" />
      </cc:Work>
    </rdf:RDF>
  </metadata>
  <g
     id="layer1"
     inkscape:label="Layer 1"
     inkscape:groupmode="layer">
    <path
       sodipodi:nodetypes="ccccc"
       id="path2133"
       d="M 55.936019,32.115315 C 55.936019,45.232057 45.302771,55.865286 32.186048,55.865286 C 19.069270,55.865286 8.4360418,45.232057 8.4360418,32.115315 C 8.4360418,18.998539 19.069270,8.3653041 32.186048,8.3653041 C 45.302771,8.3653041 55.936019,18.998539 55.936019,32.115315 z "
       style="font-size:12.000000;fill:#000000;fill-opacity:0.29803923;fill-rule:evenodd;stroke-width:1.0000000" />
    <circle
       sodipodi:ry="14267.000"
       sodipodi:rx="14267.000"
       sodipodi:cy="15011.000"
       sodipodi:cx="15010.000"
       cx="15010.000"
       cy="15011.000"
       r="14267.000"
       transform="matrix(1.652552e-3,0.000000,0.000000,1.652552e-3,5.480064,5.409329)"
       style="font-size:12.000000;fill:url(#linearGradient2070)"
       id="circle570" />
    <circle
       sodipodi:ry="12870.000"
       sodipodi:rx="12870.000"
       sodipodi:cy="15000.000"
       sodipodi:cx="15000.000"
       cx="15000.000"
       cy="15000.000"
       r="12870.000"
       transform="matrix(1.652552e-3,0.000000,0.000000,1.652552e-3,5.480064,5.409329)"
       style="font-size:12.000000;fill:url(#radialGradient2068)"
       id="circle572" />
    <path
       d="M 30.265503,6.6388277 C 37.867300,6.6388277 44.640297,10.333934 48.912100,16.035238 C 46.773743,13.683657 43.680887,13.882696 40.540944,15.413526 C 37.401022,16.944359 34.214052,19.806989 31.887451,22.782592 C 26.363941,29.624793 20.868816,28.768648 17.148102,29.548635 C 13.427399,30.328640 11.481134,32.744778 13.055397,46.131540 C 9.2356606,41.932398 6.8966446,36.341806 6.8966446,30.215789 C 6.8966446,17.230037 17.394370,6.6388277 30.265503,6.6388277 z "
       style="font-size:12.000000;fill:url(#radialGradient2059);fill-opacity:1.0000000"
       id="path571"
       sodipodi:nodetypes="ccsssccc" />
    <path
       style="font-size:12.000000;fill:#07196b;fill-opacity:1.0000000;fill-rule:evenodd;stroke-width:1.0000000"
       d="M 53.000944,30.115292 C 53.000944,42.715645 42.786379,52.930231 30.186025,52.930231 C 17.585659,52.930231 7.3710579,42.715645 7.3710579,30.115292 C 7.3710579,17.514927 17.585659,7.3003202 30.186025,7.3003202 C 42.786379,7.3003202 53.000944,17.514927 53.000944,30.115292 z M 53.935996,30.115292 C 53.935996,43.232034 43.302749,53.865263 30.186025,53.865263 C 17.069247,53.865263 6.4360192,43.232034 6.4360192,30.115292 C 6.4360192,16.998516 17.069247,6.3652815 30.186025,6.3652815 C 43.302749,6.3652815 53.935996,16.998516 53.935996,30.115292 z "
       id="path847" />
    <path
       class="fil1"
       d="M 32.936376,33.418112 L 32.973973,33.309075 L 33.013454,33.200038 L 33.056691,33.091001 L 33.109330,32.965045 L 33.175129,32.848488 L 33.237166,32.745090 L 33.306724,32.641694 L 33.380043,32.538296 L 33.457122,32.433020 L 33.539838,32.329622 L 33.626316,32.226226 L 33.716554,32.122829 L 33.812431,32.019430 L 33.912068,31.914153 L 34.015466,31.810757 L 34.124502,31.705480 L 34.237299,31.600202 L 34.355736,31.493046 L 34.476052,31.387768 L 34.605769,31.276851 L 34.814444,31.115176 L 35.011837,30.959139 L 35.203592,30.804984 L 35.391587,30.652709 L 35.575822,30.500433 L 35.756297,30.350037 L 35.933013,30.199641 L 36.105967,30.051125 L 36.273283,29.902609 L 36.438717,29.755973 L 36.598514,29.611217 L 36.754550,29.466462 L 36.906825,29.323585 L 37.053461,29.180709 L 37.198217,29.039714 L 37.337332,28.898718 L 37.474571,28.759601 L 37.606166,28.622365 L 37.734003,28.485128 L 37.858079,28.349771 L 37.976516,28.214415 L 38.093073,28.080940 L 38.203989,27.949343 L 38.311146,27.817747 L 38.416424,27.688031 L 38.514180,27.560194 L 38.610058,27.432359 L 38.702176,27.306401 L 38.790533,27.180445 L 38.873251,27.056368 L 38.954089,26.934172 L 39.027406,26.813854 L 39.096964,26.695418 L 39.164644,26.576981 L 39.228562,26.456665 L 39.292478,26.336348 L 39.352638,26.214151 L 39.410916,26.090074 L 39.467315,25.965998 L 39.521833,25.840041 L 39.572591,25.714085 L 39.623350,25.586248 L 39.670348,25.458413 L 39.715468,25.328695 L 39.758707,25.198980 L 39.800065,25.067383 L 39.837664,24.933907 L 39.875263,24.800431 L 39.909102,24.665074 L 39.941061,24.529718 L 39.971140,24.392482 L 39.999339,24.255245 L 40.025659,24.114249 L 40.048219,23.975133 L 40.068897,23.834137 L 40.087697,23.691262 L 40.104617,23.546505 L 40.119657,23.401749 L 40.130936,23.256993 L 40.142216,23.110358 L 40.149735,22.961841 L 40.155375,22.811446 L 40.159135,22.661049 L 40.159135,22.512534 L 40.155375,22.243701 L 40.144096,21.978628 L 40.127176,21.717316 L 40.106497,21.459763 L 40.078298,21.207850 L 40.046339,20.961577 L 40.008740,20.719061 L 39.965501,20.480308 L 39.918502,20.247195 L 39.863983,20.017841 L 39.805704,19.792247 L 39.741787,19.572293 L 39.672229,19.357978 L 39.598911,19.147426 L 39.518073,18.940631 L 39.433475,18.737596 L 39.345118,18.540201 L 39.249240,18.346567 L 39.149603,18.158573 L 39.042446,17.972457 L 38.933409,17.791982 L 38.816852,17.617147 L 38.696536,17.444193 L 38.568700,17.276878 L 38.437103,17.113321 L 38.301747,16.953526 L 38.158870,16.799370 L 38.010355,16.647095 L 37.858079,16.500459 L 37.700163,16.357581 L 37.536608,16.218466 L 37.363652,16.081229 L 37.188817,15.942114 L 37.013982,15.810516 L 36.835387,15.682680 L 36.656792,15.558604 L 36.474437,15.440168 L 36.288322,15.325490 L 36.102208,15.214574 L 35.910452,15.109296 L 35.718697,15.007778 L 35.523183,14.910021 L 35.325789,14.817905 L 35.124634,14.727668 L 34.921600,14.644950 L 34.716687,14.564111 L 34.508012,14.488914 L 34.295577,14.417476 L 34.083143,14.349798 L 33.865069,14.287758 L 33.646996,14.227601 L 33.425162,14.173083 L 33.199568,14.124204 L 32.972094,14.079085 L 32.740860,14.037726 L 32.509627,14.000127 L 32.272753,13.968168 L 32.034000,13.939969 L 31.791487,13.915530 L 31.547093,13.896731 L 31.300820,13.879811 L 31.050787,13.870412 L 30.796995,13.862891 L 30.541321,13.861011 L 30.259329,13.862891 L 29.979217,13.870412 L 29.702864,13.883571 L 29.430272,13.898610 L 29.159560,13.921169 L 28.894487,13.947488 L 28.631294,13.979449 L 28.371861,14.015167 L 28.116189,14.054645 L 27.864275,14.099764 L 27.616122,14.150523 L 27.371729,14.205042 L 27.129215,14.265200 L 26.890463,14.329118 L 26.655468,14.398676 L 26.424235,14.471994 L 26.194882,14.550951 L 25.971168,14.633669 L 25.749334,14.722027 L 25.531260,14.814144 L 25.315066,14.911902 L 25.104511,15.013419 L 24.895838,15.120576 L 24.690923,15.231493 L 24.489768,15.348050 L 24.290494,15.468366 L 24.094979,15.594323 L 23.903224,15.725920 L 23.713350,15.861275 L 23.527235,16.000392 L 23.344880,16.145147 L 23.164405,16.293665 L 22.989570,16.447818 L 22.818494,16.605735 L 22.651180,16.767410 L 22.489504,16.934726 L 22.333468,17.105802 L 22.181192,17.280636 L 22.032676,17.461111 L 21.887921,17.645347 L 21.750685,17.835221 L 21.615328,18.028856 L 21.485612,18.226250 L 21.359655,18.429285 L 21.239338,18.637958 L 21.122781,18.848513 L 21.009985,19.066587 L 20.902828,19.286541 L 20.799431,19.514015 L 20.701673,19.743368 L 20.607676,19.980242 L 20.517438,20.218995 L 20.432841,20.465268 L 20.353883,20.713422 L 20.276805,20.969096 L 20.205368,21.226649 L 20.139570,21.491721 L 20.077531,21.760554 L 20.019253,22.033147 L 19.966614,22.311379 L 19.917735,22.593372 L 19.874496,22.881004 L 19.844418,23.106598 L 25.958008,23.503266 L 25.973048,23.394229 L 25.991846,23.285192 L 26.012526,23.174275 L 26.035086,23.067119 L 26.059526,22.959961 L 26.087724,22.852804 L 26.117804,22.747527 L 26.147882,22.644130 L 26.181722,22.542613 L 26.217440,22.441095 L 26.255039,22.339578 L 26.296398,22.239941 L 26.337757,22.142184 L 26.382876,22.046307 L 26.429875,21.950429 L 26.478754,21.856432 L 26.527632,21.762435 L 26.582151,21.670317 L 26.636669,21.580079 L 26.693068,21.489842 L 26.753226,21.401484 L 26.815264,21.315007 L 26.879182,21.228528 L 26.944981,21.145812 L 27.012659,21.061213 L 27.082218,20.980376 L 27.153656,20.899538 L 27.226972,20.820579 L 27.300291,20.747260 L 27.369848,20.673942 L 27.446926,20.598745 L 27.525885,20.527306 L 27.606722,20.455869 L 27.689440,20.388191 L 27.775919,20.322392 L 27.862395,20.260354 L 27.952633,20.200196 L 28.042870,20.141917 L 28.136869,20.085518 L 28.232746,20.032881 L 28.330503,19.980242 L 28.428260,19.931364 L 28.529777,19.886245 L 28.633174,19.843006 L 28.738451,19.799767 L 28.845607,19.762167 L 28.952766,19.724568 L 29.063682,19.690730 L 29.176480,19.658771 L 29.291155,19.628691 L 29.405832,19.602372 L 29.524269,19.577934 L 29.642706,19.555374 L 29.764903,19.534695 L 29.887099,19.517775 L 30.013056,19.502735 L 30.139012,19.487696 L 30.268730,19.478296 L 30.398445,19.468896 L 30.530042,19.463257 L 30.669158,19.457616 L 30.859032,19.461376 L 31.043267,19.472656 L 31.221863,19.489576 L 31.398577,19.514015 L 31.571533,19.545974 L 31.740728,19.585453 L 31.906163,19.632452 L 32.067839,19.685090 L 32.225754,19.747128 L 32.379910,19.816686 L 32.528427,19.893765 L 32.673183,19.976481 L 32.814179,20.068599 L 32.949535,20.166356 L 33.081131,20.271633 L 33.208967,20.384430 L 33.329285,20.504748 L 33.443961,20.632584 L 33.549238,20.766060 L 33.646996,20.905178 L 33.737232,21.051814 L 33.819950,21.204090 L 33.893268,21.362005 L 33.959067,21.523681 L 34.017345,21.692877 L 34.068104,21.865832 L 34.109462,22.046307 L 34.143302,22.228661 L 34.169620,22.418536 L 34.188420,22.612171 L 34.199700,22.809565 L 34.203460,23.018240 L 34.199700,23.129156 L 34.190301,23.232554 L 34.179020,23.337831 L 34.163981,23.441229 L 34.145182,23.546505 L 34.122622,23.649903 L 34.098182,23.753299 L 34.069984,23.856697 L 34.038025,23.958213 L 34.002305,24.061611 L 33.964707,24.165007 L 33.923348,24.266525 L 33.878229,24.368043 L 33.831231,24.471439 L 33.780471,24.572957 L 33.725952,24.672594 L 33.667674,24.774110 L 33.607517,24.873749 L 33.545478,24.975265 L 33.477800,25.074903 L 33.408242,25.174540 L 33.336804,25.274177 L 33.259726,25.373814 L 33.182648,25.471572 L 33.099930,25.571209 L 33.015332,25.668966 L 32.928855,25.768604 L 32.836737,25.866361 L 32.744621,25.965998 L 32.648744,26.063755 L 32.549105,26.161513 L 32.447589,26.257390 L 32.347952,26.353267 L 32.244554,26.451024 L 32.139278,26.550663 L 32.034000,26.652179 L 31.924963,26.755576 L 31.814046,26.860854 L 31.701249,26.966130 L 31.588452,27.075167 L 31.471896,27.184204 L 31.353458,27.295121 L 31.233142,27.407918 L 31.110946,27.522595 L 30.986869,27.639152 L 30.859032,27.757588 L 30.731195,27.877905 L 30.601480,27.998223 L 30.469883,28.120419 L 30.334528,28.246375 L 30.199172,28.372332 L 30.060055,28.500168 L 29.920938,28.629884 L 29.778062,28.761482 L 29.633307,28.893077 L 29.486670,29.028433 L 29.340035,29.163790 L 29.189640,29.301026 L 29.037363,29.442021 L 28.883208,29.581138 L 28.727172,29.724014 L 28.567376,29.868771 L 28.407580,30.015406 L 28.249664,30.158283 L 28.153786,30.248519 L 28.063550,30.340637 L 27.975192,30.434635 L 27.890595,30.528631 L 27.807877,30.626390 L 27.728919,30.726026 L 27.653721,30.825665 L 27.582284,30.929061 L 27.512726,31.034338 L 27.446926,31.141495 L 27.383009,31.250532 L 27.322850,31.359569 L 27.266451,31.472366 L 27.211933,31.587043 L 27.161175,31.705480 L 27.112296,31.823917 L 27.069058,31.944233 L 27.025819,32.068310 L 26.986340,32.194266 L 26.950620,32.322102 L 26.918661,32.451819 L 26.888583,32.583415 L 26.862264,32.718771 L 26.837824,32.854127 L 26.817144,32.993244 L 26.800225,33.134240 L 26.785186,33.278996 L 26.773906,33.423752 L 26.764506,33.572267 L 26.760746,33.722663 L 26.758866,33.874940 L 26.758866,34.034735 L 26.758866,35.698489 L 32.714541,35.698489 L 32.714541,34.703997 L 32.716421,34.600599 L 32.722061,34.495323 L 32.729580,34.390045 L 32.740860,34.282888 L 32.754020,34.175732 L 32.770939,34.068574 L 32.791620,33.961417 L 32.814179,33.852380 L 32.840498,33.745223 L 32.868697,33.636187 L 32.900656,33.527150 L 32.936376,33.418112 z M 26.050125,42.815972 L 26.050125,42.917489 L 26.053886,43.019006 L 26.059526,43.118643 L 26.067045,43.216401 L 26.078325,43.314158 L 26.089604,43.410036 L 26.104644,43.504032 L 26.121563,43.596151 L 26.140363,43.688268 L 26.161042,43.778506 L 26.183602,43.868743 L 26.208042,43.957101 L 26.236240,44.041699 L 26.266320,44.128175 L 26.296398,44.212774 L 26.330238,44.295490 L 26.365956,44.376329 L 26.405436,44.457168 L 26.444915,44.536125 L 26.488153,44.615082 L 26.533272,44.692160 L 26.580272,44.767358 L 26.629149,44.842557 L 26.679908,44.917753 L 26.732546,44.989192 L 26.788945,45.060629 L 26.847224,45.132069 L 26.907382,45.201626 L 26.969420,45.269304 L 27.035218,45.338863 L 27.102896,45.404660 L 27.183734,45.481739 L 27.260813,45.564457 L 27.324730,45.632134 L 27.390528,45.697933 L 27.456327,45.759971 L 27.524006,45.820129 L 27.593563,45.878408 L 27.663121,45.934805 L 27.732679,45.989324 L 27.804117,46.040083 L 27.877434,46.090842 L 27.950753,46.137840 L 28.025952,46.182959 L 28.101148,46.226198 L 28.178227,46.267556 L 28.257185,46.305156 L 28.336142,46.342755 L 28.415099,46.376593 L 28.497818,46.410434 L 28.580536,46.440511 L 28.665133,46.468711 L 28.749730,46.495031 L 28.836209,46.519470 L 28.924566,46.542029 L 29.012923,46.562709 L 29.103161,46.581508 L 29.195279,46.598428 L 29.287396,46.611588 L 29.383274,46.624747 L 29.477271,46.634147 L 29.575029,46.641666 L 29.674666,46.647306 L 29.764903,46.651066 L 29.857021,46.647306 L 29.958537,46.641666 L 30.060055,46.634147 L 30.157812,46.622867 L 30.255569,46.611588 L 30.351446,46.596547 L 30.445444,46.581508 L 30.537561,46.562709 L 30.629680,46.542029 L 30.721796,46.519470 L 30.810154,46.495031 L 30.898512,46.468711 L 30.984989,46.438632 L 31.071466,46.408553 L 31.156065,46.376593 L 31.238782,46.340875 L 31.321500,46.303275 L 31.402338,46.263797 L 31.481295,46.224318 L 31.560252,46.179198 L 31.639212,46.134082 L 31.714408,46.087082 L 31.791487,46.036323 L 31.864805,45.985564 L 31.940003,45.931046 L 32.011441,45.874647 L 32.084759,45.816370 L 32.154317,45.754331 L 32.223875,45.692292 L 32.293434,45.626495 L 32.361111,45.558816 L 32.430670,45.487378 L 32.494587,45.419700 L 32.554746,45.352022 L 32.613023,45.284344 L 32.667543,45.216666 L 32.722061,45.147108 L 32.774699,45.075670 L 32.825457,45.004232 L 32.872457,44.930913 L 32.919455,44.855716 L 32.964574,44.780518 L 33.007813,44.705320 L 33.047292,44.626362 L 33.086771,44.547404 L 33.124370,44.468447 L 33.160088,44.385728 L 33.193929,44.303012 L 33.225887,44.220294 L 33.254086,44.133816 L 33.282285,44.047338 L 33.308604,43.960860 L 33.333043,43.870623 L 33.355604,43.782266 L 33.376282,43.690148 L 33.395082,43.596151 L 33.412002,43.502154 L 33.427042,43.406276 L 33.440202,43.310398 L 33.451481,43.212641 L 33.460880,43.113004 L 33.468400,43.011487 L 33.474039,42.909969 L 33.477800,42.814092 L 33.474039,42.716335 L 33.468400,42.611057 L 33.460880,42.505781 L 33.451481,42.402384 L 33.440202,42.300866 L 33.427042,42.201229 L 33.412002,42.101592 L 33.395082,42.003835 L 33.376282,41.907957 L 33.355604,41.812080 L 33.333043,41.718082 L 33.308604,41.625965 L 33.282285,41.535728 L 33.254086,41.445490 L 33.224006,41.357132 L 33.192048,41.270655 L 33.158209,41.184177 L 33.122491,41.099579 L 33.084891,41.016862 L 33.045412,40.934144 L 33.004053,40.853307 L 32.962695,40.774348 L 32.917575,40.695390 L 32.870577,40.618313 L 32.821698,40.541234 L 32.770939,40.467917 L 32.718302,40.392719 L 32.663783,40.321281 L 32.607384,40.249843 L 32.550986,40.180284 L 32.490827,40.110726 L 32.432548,40.048689 L 32.372391,39.988530 L 32.304712,39.926493 L 32.235154,39.866333 L 32.165597,39.808055 L 32.094159,39.751656 L 32.022720,39.697138 L 31.949402,39.644500 L 31.876085,39.593742 L 31.800886,39.546743 L 31.723809,39.499743 L 31.646731,39.454625 L 31.567773,39.411387 L 31.488815,39.370028 L 31.407977,39.330549 L 31.327139,39.294829 L 31.244421,39.259111 L 31.161704,39.225271 L 31.075226,39.193313 L 30.988748,39.163233 L 30.902271,39.135035 L 30.813913,39.110596 L 30.721796,39.086155 L 30.631558,39.063596 L 30.539442,39.042916 L 30.445444,39.024117 L 30.349567,39.007198 L 30.253689,38.992157 L 30.155932,38.980879 L 30.056294,38.969599 L 29.956657,38.960198 L 29.853261,38.952679 L 29.764903,38.948919 L 29.678425,38.952679 L 29.578787,38.960198 L 29.481031,38.969599 L 29.385153,38.980879 L 29.289275,38.992157 L 29.195279,39.007198 L 29.103161,39.024117 L 29.012923,39.042916 L 28.922686,39.061716 L 28.834328,39.084275 L 28.745972,39.108714 L 28.661373,39.135035 L 28.576776,39.163233 L 28.492178,39.191432 L 28.409460,39.223391 L 28.328623,39.257231 L 28.249664,39.292949 L 28.170707,39.328669 L 28.093629,39.368148 L 28.016551,39.409506 L 27.941353,39.452745 L 27.868035,39.495985 L 27.794717,39.542982 L 27.723278,39.591862 L 27.651842,39.640739 L 27.582284,39.693379 L 27.514604,39.747898 L 27.446926,39.804296 L 27.379249,39.860693 L 27.313451,39.920852 L 27.249533,39.982890 L 27.181854,40.052449 L 27.106657,40.125766 L 27.038978,40.193444 L 26.975059,40.264882 L 26.911142,40.336320 L 26.850983,40.407759 L 26.792706,40.481077 L 26.736307,40.556275 L 26.683668,40.631472 L 26.631030,40.708550 L 26.582151,40.787509 L 26.535152,40.866466 L 26.490033,40.947305 L 26.446795,41.028142 L 26.407315,41.110859 L 26.367837,41.193577 L 26.332118,41.278175 L 26.298278,41.364652 L 26.266320,41.453010 L 26.238120,41.541368 L 26.209921,41.631605 L 26.183602,41.721842 L 26.161042,41.813959 L 26.140363,41.907957 L 26.121563,42.003835 L 26.104644,42.099713 L 26.089604,42.197470 L 26.078325,42.297106 L 26.067045,42.398623 L 26.059526,42.500141 L 26.053886,42.603537 L 26.050125,42.708816 L 26.050125,42.815972 z "
       id="path857"
       style="font-size:12.000000;fill:url(#linearGradient2968);fill-rule:evenodd;stroke:#07196b;stroke-width:0.52843410;stroke-miterlimit:4.0000000;stroke-dasharray:none;stroke-opacity:1.0000000" />
  </g>
</svg>
